<mxfile host="Electron" modified="2024-05-18T15:07:53.742Z" agent="Mozilla/5.0 (Windows NT 10.0; Win64; x64) AppleWebKit/537.36 (KHTML, like Gecko) draw.io/24.4.0 Chrome/120.0.6099.109 Electron/28.1.0 Safari/537.36" etag="BKZfBoKEgGykp7XVVwv1" version="24.4.0" type="device">
  <diagram id="R2lEEEUBdFMjLlhIrx00" name="Page-1">
    <mxGraphModel dx="875" dy="524" grid="1" gridSize="10" guides="1" tooltips="1" connect="1" arrows="1" fold="1" page="1" pageScale="1" pageWidth="1920" pageHeight="1200" math="0" shadow="0" extFonts="Permanent Marker^https://fonts.googleapis.com/css?family=Permanent+Marker">
      <root>
        <mxCell id="0" />
        <mxCell id="1" parent="0" />
        <mxCell id="UQRfkEOlzrfQVvjRMX5c-15" style="edgeStyle=orthogonalEdgeStyle;rounded=1;orthogonalLoop=1;jettySize=auto;html=1;entryX=0.5;entryY=1;entryDx=0;entryDy=0;endArrow=ERzeroToOne;endFill=0;exitX=0.5;exitY=0;exitDx=0;exitDy=0;curved=0;" parent="1" source="UQRfkEOlzrfQVvjRMX5c-13" target="6jxhnNfjv8f81NzVHh5A-1" edge="1">
          <mxGeometry relative="1" as="geometry">
            <mxPoint x="830" y="700" as="sourcePoint" />
            <Array as="points">
              <mxPoint x="1305" y="560" />
              <mxPoint x="1200" y="560" />
            </Array>
          </mxGeometry>
        </mxCell>
        <mxCell id="UQRfkEOlzrfQVvjRMX5c-19" style="edgeStyle=orthogonalEdgeStyle;rounded=1;orthogonalLoop=1;jettySize=auto;html=1;exitX=0;exitY=0.5;exitDx=0;exitDy=0;entryX=1;entryY=0.5;entryDx=0;entryDy=0;endArrow=ERzeroToOne;endFill=0;curved=0;" parent="1" source="UQRfkEOlzrfQVvjRMX5c-18" target="6jxhnNfjv8f81NzVHh5A-1" edge="1">
          <mxGeometry relative="1" as="geometry">
            <mxPoint x="1470" y="500" as="targetPoint" />
          </mxGeometry>
        </mxCell>
        <mxCell id="6jxhnNfjv8f81NzVHh5A-1" value="&lt;font style=&quot;font-size: 18px;&quot;&gt;User&lt;/font&gt;" style="rounded=0;whiteSpace=wrap;html=1;fillColor=#dae8fc;strokeColor=#6c8ebf;" parent="1" vertex="1">
          <mxGeometry x="1125" y="400" width="150" height="60" as="geometry" />
        </mxCell>
        <mxCell id="UQRfkEOlzrfQVvjRMX5c-26" style="edgeStyle=orthogonalEdgeStyle;rounded=1;orthogonalLoop=1;jettySize=auto;html=1;exitX=0.5;exitY=0;exitDx=0;exitDy=0;entryX=0.5;entryY=1;entryDx=0;entryDy=0;endArrow=ERoneToMany;endFill=0;curved=0;" parent="1" source="UQRfkEOlzrfQVvjRMX5c-21" target="UQRfkEOlzrfQVvjRMX5c-1" edge="1">
          <mxGeometry relative="1" as="geometry" />
        </mxCell>
        <mxCell id="EjLKQ6Hcr3rjrkump423-1" style="edgeStyle=orthogonalEdgeStyle;rounded=1;orthogonalLoop=1;jettySize=auto;html=1;entryX=1;entryY=0.5;entryDx=0;entryDy=0;exitX=0;exitY=0.5;exitDx=0;exitDy=0;endArrow=ERzeroToOne;endFill=0;curved=0;" edge="1" parent="1" source="EjLKQ6Hcr3rjrkump423-2" target="UQRfkEOlzrfQVvjRMX5c-1">
          <mxGeometry relative="1" as="geometry">
            <mxPoint x="1710" y="1040" as="sourcePoint" />
            <Array as="points">
              <mxPoint x="1590" y="1040" />
              <mxPoint x="1590" y="1040" />
            </Array>
          </mxGeometry>
        </mxCell>
        <mxCell id="UQRfkEOlzrfQVvjRMX5c-1" value="&lt;font style=&quot;font-size: 18px;&quot;&gt;Plan&lt;/font&gt;" style="rounded=0;whiteSpace=wrap;html=1;fillColor=#dae8fc;strokeColor=#6c8ebf;" parent="1" vertex="1">
          <mxGeometry x="1130" y="1010" width="150" height="60" as="geometry" />
        </mxCell>
        <mxCell id="UQRfkEOlzrfQVvjRMX5c-3" value="&lt;font style=&quot;font-size: 18px;&quot;&gt;Accommodation&lt;/font&gt;" style="rounded=0;whiteSpace=wrap;html=1;fillColor=#dae8fc;strokeColor=#6c8ebf;" parent="1" vertex="1">
          <mxGeometry x="700" y="1440" width="150" height="60" as="geometry" />
        </mxCell>
        <mxCell id="UQRfkEOlzrfQVvjRMX5c-4" value="&lt;font style=&quot;font-size: 18px;&quot;&gt;Transportation&lt;/font&gt;" style="rounded=0;whiteSpace=wrap;html=1;fillColor=#dae8fc;strokeColor=#6c8ebf;" parent="1" vertex="1">
          <mxGeometry x="1285" y="1660" width="150" height="60" as="geometry" />
        </mxCell>
        <mxCell id="EjLKQ6Hcr3rjrkump423-6" style="rounded=0;orthogonalLoop=1;jettySize=auto;html=1;exitX=0.5;exitY=0;exitDx=0;exitDy=0;entryX=0.5;entryY=1;entryDx=0;entryDy=0;endArrow=none;endFill=0;" edge="1" parent="1" source="UQRfkEOlzrfQVvjRMX5c-12" target="EjLKQ6Hcr3rjrkump423-5">
          <mxGeometry relative="1" as="geometry" />
        </mxCell>
        <mxCell id="UQRfkEOlzrfQVvjRMX5c-12" value="&lt;font style=&quot;font-size: 18px;&quot;&gt;Review&lt;/font&gt;" style="rounded=0;whiteSpace=wrap;html=1;fillColor=#dae8fc;strokeColor=#6c8ebf;" parent="1" vertex="1">
          <mxGeometry x="1910" y="760" width="150" height="60" as="geometry" />
        </mxCell>
        <mxCell id="UQRfkEOlzrfQVvjRMX5c-16" style="edgeStyle=orthogonalEdgeStyle;rounded=1;orthogonalLoop=1;jettySize=auto;html=1;exitX=0.5;exitY=1;exitDx=0;exitDy=0;endArrow=ERoneToMany;endFill=0;curved=0;" parent="1" source="UQRfkEOlzrfQVvjRMX5c-13" target="UQRfkEOlzrfQVvjRMX5c-1" edge="1">
          <mxGeometry relative="1" as="geometry">
            <Array as="points">
              <mxPoint x="1305" y="830" />
              <mxPoint x="1225" y="830" />
            </Array>
          </mxGeometry>
        </mxCell>
        <mxCell id="UQRfkEOlzrfQVvjRMX5c-13" value="&lt;font style=&quot;font-size: 18px;&quot;&gt;Requests&lt;/font&gt;" style="rhombus;whiteSpace=wrap;html=1;fillColor=#e1d5e7;strokeColor=#9673a6;" parent="1" vertex="1">
          <mxGeometry x="1230" y="650" width="150" height="80" as="geometry" />
        </mxCell>
        <mxCell id="UQRfkEOlzrfQVvjRMX5c-20" style="edgeStyle=orthogonalEdgeStyle;rounded=1;orthogonalLoop=1;jettySize=auto;html=1;exitX=1;exitY=0.5;exitDx=0;exitDy=0;entryX=0;entryY=0.5;entryDx=0;entryDy=0;endArrow=ERoneToMany;endFill=0;curved=0;" parent="1" source="UQRfkEOlzrfQVvjRMX5c-18" target="UQRfkEOlzrfQVvjRMX5c-12" edge="1">
          <mxGeometry relative="1" as="geometry" />
        </mxCell>
        <mxCell id="UQRfkEOlzrfQVvjRMX5c-18" value="&lt;font style=&quot;font-size: 18px;&quot;&gt;Submits&lt;/font&gt;" style="rhombus;whiteSpace=wrap;html=1;fillColor=#e1d5e7;strokeColor=#9673a6;" parent="1" vertex="1">
          <mxGeometry x="1480" y="530" width="150" height="80" as="geometry" />
        </mxCell>
        <mxCell id="UQRfkEOlzrfQVvjRMX5c-27" style="edgeStyle=orthogonalEdgeStyle;rounded=1;orthogonalLoop=1;jettySize=auto;html=1;exitX=0.5;exitY=1;exitDx=0;exitDy=0;entryX=0.5;entryY=0;entryDx=0;entryDy=0;endArrow=ERoneToMany;endFill=0;curved=0;" parent="1" source="UQRfkEOlzrfQVvjRMX5c-21" target="UQRfkEOlzrfQVvjRMX5c-4" edge="1">
          <mxGeometry relative="1" as="geometry" />
        </mxCell>
        <mxCell id="UQRfkEOlzrfQVvjRMX5c-21" value="&lt;font style=&quot;font-size: 18px;&quot;&gt;Contains&lt;/font&gt;" style="rhombus;whiteSpace=wrap;html=1;fillColor=#e1d5e7;strokeColor=#9673a6;" parent="1" vertex="1">
          <mxGeometry x="1130" y="1350" width="150" height="80" as="geometry" />
        </mxCell>
        <mxCell id="UQRfkEOlzrfQVvjRMX5c-29" style="edgeStyle=orthogonalEdgeStyle;rounded=1;orthogonalLoop=1;jettySize=auto;html=1;exitX=1;exitY=0.5;exitDx=0;exitDy=0;entryX=0.5;entryY=0;entryDx=0;entryDy=0;endArrow=ERoneToMany;endFill=0;curved=0;" parent="1" source="UQRfkEOlzrfQVvjRMX5c-22" target="CbJjqBj2suY3-Hmp5YB--5" edge="1">
          <mxGeometry relative="1" as="geometry" />
        </mxCell>
        <mxCell id="CbJjqBj2suY3-Hmp5YB--3" style="edgeStyle=orthogonalEdgeStyle;rounded=1;orthogonalLoop=1;jettySize=auto;html=1;exitX=0;exitY=0.5;exitDx=0;exitDy=0;entryX=0.987;entryY=0.839;entryDx=0;entryDy=0;entryPerimeter=0;endArrow=ERmandOne;endFill=0;curved=0;" parent="1" source="UQRfkEOlzrfQVvjRMX5c-22" target="UQRfkEOlzrfQVvjRMX5c-1" edge="1">
          <mxGeometry relative="1" as="geometry">
            <mxPoint x="1300" y="1080" as="targetPoint" />
            <Array as="points">
              <mxPoint x="1470" y="1130" />
              <mxPoint x="1470" y="1060" />
            </Array>
          </mxGeometry>
        </mxCell>
        <mxCell id="UQRfkEOlzrfQVvjRMX5c-24" style="edgeStyle=orthogonalEdgeStyle;rounded=1;orthogonalLoop=1;jettySize=auto;html=1;endArrow=ERoneToMany;endFill=0;strokeWidth=1;curved=0;exitX=0.5;exitY=0;exitDx=0;exitDy=0;entryX=0.396;entryY=1.01;entryDx=0;entryDy=0;entryPerimeter=0;" parent="1" source="UQRfkEOlzrfQVvjRMX5c-23" target="UQRfkEOlzrfQVvjRMX5c-1" edge="1">
          <mxGeometry relative="1" as="geometry">
            <mxPoint x="1005" y="1190" as="sourcePoint" />
            <mxPoint x="1195" y="1100" as="targetPoint" />
            <Array as="points">
              <mxPoint x="995" y="1200" />
              <mxPoint x="1190" y="1200" />
            </Array>
          </mxGeometry>
        </mxCell>
        <mxCell id="UQRfkEOlzrfQVvjRMX5c-25" style="edgeStyle=orthogonalEdgeStyle;rounded=1;orthogonalLoop=1;jettySize=auto;html=1;exitX=0.5;exitY=1;exitDx=0;exitDy=0;entryX=0.5;entryY=0;entryDx=0;entryDy=0;endArrow=ERoneToMany;endFill=0;curved=0;" parent="1" source="UQRfkEOlzrfQVvjRMX5c-23" target="UQRfkEOlzrfQVvjRMX5c-3" edge="1">
          <mxGeometry relative="1" as="geometry" />
        </mxCell>
        <mxCell id="UQRfkEOlzrfQVvjRMX5c-23" value="&lt;font style=&quot;font-size: 18px;&quot;&gt;Includes&lt;/font&gt;" style="rhombus;whiteSpace=wrap;html=1;fillColor=#e1d5e7;strokeColor=#9673a6;" parent="1" vertex="1">
          <mxGeometry x="920" y="1250" width="150" height="80" as="geometry" />
        </mxCell>
        <mxCell id="UQRfkEOlzrfQVvjRMX5c-36" style="rounded=0;orthogonalLoop=1;jettySize=auto;html=1;exitX=1;exitY=1;exitDx=0;exitDy=0;entryX=0.25;entryY=0;entryDx=0;entryDy=0;endArrow=none;endFill=0;" parent="1" source="UQRfkEOlzrfQVvjRMX5c-30" target="6jxhnNfjv8f81NzVHh5A-1" edge="1">
          <mxGeometry relative="1" as="geometry" />
        </mxCell>
        <mxCell id="UQRfkEOlzrfQVvjRMX5c-30" value="Username" style="ellipse;whiteSpace=wrap;html=1;fillColor=#fff2cc;strokeColor=#d6b656;" parent="1" vertex="1">
          <mxGeometry x="990" y="260" width="150" height="60" as="geometry" />
        </mxCell>
        <mxCell id="UQRfkEOlzrfQVvjRMX5c-31" value="E-mail" style="ellipse;whiteSpace=wrap;html=1;fillColor=#fff2cc;strokeColor=#d6b656;" parent="1" vertex="1">
          <mxGeometry x="870" y="330" width="150" height="60" as="geometry" />
        </mxCell>
        <mxCell id="UQRfkEOlzrfQVvjRMX5c-37" style="rounded=0;orthogonalLoop=1;jettySize=auto;html=1;exitX=0.5;exitY=1;exitDx=0;exitDy=0;entryX=1;entryY=0;entryDx=0;entryDy=0;endArrow=none;endFill=0;" parent="1" source="UQRfkEOlzrfQVvjRMX5c-32" target="6jxhnNfjv8f81NzVHh5A-1" edge="1">
          <mxGeometry relative="1" as="geometry" />
        </mxCell>
        <mxCell id="UQRfkEOlzrfQVvjRMX5c-32" value="Password" style="ellipse;whiteSpace=wrap;html=1;fillColor=#fff2cc;strokeColor=#d6b656;" parent="1" vertex="1">
          <mxGeometry x="1310" y="280" width="150" height="60" as="geometry" />
        </mxCell>
        <mxCell id="UQRfkEOlzrfQVvjRMX5c-38" style="rounded=0;orthogonalLoop=1;jettySize=auto;html=1;exitX=0.5;exitY=1;exitDx=0;exitDy=0;endArrow=none;endFill=0;entryX=0.619;entryY=0.026;entryDx=0;entryDy=0;entryPerimeter=0;" parent="1" source="UQRfkEOlzrfQVvjRMX5c-33" target="6jxhnNfjv8f81NzVHh5A-1" edge="1">
          <mxGeometry relative="1" as="geometry">
            <mxPoint x="1210" y="630" as="targetPoint" />
          </mxGeometry>
        </mxCell>
        <mxCell id="UQRfkEOlzrfQVvjRMX5c-33" value="&lt;u&gt;UserID&lt;/u&gt;" style="ellipse;whiteSpace=wrap;html=1;fillColor=#fff2cc;strokeColor=#d6b656;" parent="1" vertex="1">
          <mxGeometry x="1160" y="230" width="150" height="60" as="geometry" />
        </mxCell>
        <mxCell id="UQRfkEOlzrfQVvjRMX5c-35" value="" style="endArrow=none;html=1;rounded=0;exitX=1;exitY=0.5;exitDx=0;exitDy=0;entryX=0;entryY=0.25;entryDx=0;entryDy=0;" parent="1" source="UQRfkEOlzrfQVvjRMX5c-31" target="6jxhnNfjv8f81NzVHh5A-1" edge="1">
          <mxGeometry width="50" height="50" relative="1" as="geometry">
            <mxPoint x="1170" y="770" as="sourcePoint" />
            <mxPoint x="1220" y="720" as="targetPoint" />
          </mxGeometry>
        </mxCell>
        <mxCell id="UQRfkEOlzrfQVvjRMX5c-59" style="rounded=0;orthogonalLoop=1;jettySize=auto;html=1;exitX=1;exitY=0.5;exitDx=0;exitDy=0;entryX=0;entryY=0.5;entryDx=0;entryDy=0;endArrow=none;endFill=0;" parent="1" source="UQRfkEOlzrfQVvjRMX5c-39" target="UQRfkEOlzrfQVvjRMX5c-1" edge="1">
          <mxGeometry relative="1" as="geometry" />
        </mxCell>
        <mxCell id="UQRfkEOlzrfQVvjRMX5c-39" value="UserID" style="ellipse;textShadow=0;whiteSpace=wrap;horizontal=1;verticalAlign=middle;fontStyle=0;html=1;fillColor=#f8cecc;strokeColor=#b85450;" parent="1" vertex="1">
          <mxGeometry x="770" y="1010" width="150" height="60" as="geometry" />
        </mxCell>
        <mxCell id="UQRfkEOlzrfQVvjRMX5c-58" style="rounded=0;orthogonalLoop=1;jettySize=auto;html=1;exitX=1;exitY=0.5;exitDx=0;exitDy=0;entryX=0;entryY=0.25;entryDx=0;entryDy=0;endArrow=none;endFill=0;" parent="1" source="UQRfkEOlzrfQVvjRMX5c-40" target="UQRfkEOlzrfQVvjRMX5c-1" edge="1">
          <mxGeometry relative="1" as="geometry" />
        </mxCell>
        <mxCell id="UQRfkEOlzrfQVvjRMX5c-40" value="&lt;u&gt;PlanID&lt;/u&gt;" style="ellipse;whiteSpace=wrap;html=1;fillColor=#fff2cc;strokeColor=#d6b656;" parent="1" vertex="1">
          <mxGeometry x="710" y="940" width="150" height="60" as="geometry" />
        </mxCell>
        <mxCell id="UQRfkEOlzrfQVvjRMX5c-41" value="EndDate" style="ellipse;whiteSpace=wrap;html=1;fillColor=#fff2cc;strokeColor=#d6b656;" parent="1" vertex="1">
          <mxGeometry x="900" y="710" width="150" height="60" as="geometry" />
        </mxCell>
        <mxCell id="EjLKQ6Hcr3rjrkump423-22" style="rounded=0;orthogonalLoop=1;jettySize=auto;html=1;exitX=1;exitY=1;exitDx=0;exitDy=0;entryX=0;entryY=0.5;entryDx=0;entryDy=0;endArrow=none;endFill=0;" edge="1" parent="1" source="UQRfkEOlzrfQVvjRMX5c-42" target="EjLKQ6Hcr3rjrkump423-20">
          <mxGeometry relative="1" as="geometry" />
        </mxCell>
        <mxCell id="UQRfkEOlzrfQVvjRMX5c-42" value="Startdate" style="ellipse;whiteSpace=wrap;html=1;fillColor=#fff2cc;strokeColor=#d6b656;" parent="1" vertex="1">
          <mxGeometry x="740" y="780" width="150" height="60" as="geometry" />
        </mxCell>
        <mxCell id="UQRfkEOlzrfQVvjRMX5c-60" style="rounded=0;orthogonalLoop=1;jettySize=auto;html=1;exitX=1;exitY=0.5;exitDx=0;exitDy=0;entryX=0;entryY=0.75;entryDx=0;entryDy=0;endArrow=none;endFill=0;" parent="1" source="UQRfkEOlzrfQVvjRMX5c-48" target="UQRfkEOlzrfQVvjRMX5c-1" edge="1">
          <mxGeometry relative="1" as="geometry" />
        </mxCell>
        <mxCell id="UQRfkEOlzrfQVvjRMX5c-48" value="Budget" style="ellipse;whiteSpace=wrap;html=1;fillColor=#fff2cc;strokeColor=#d6b656;" parent="1" vertex="1">
          <mxGeometry x="835" y="1080" width="150" height="60" as="geometry" />
        </mxCell>
        <mxCell id="UQRfkEOlzrfQVvjRMX5c-63" style="rounded=0;orthogonalLoop=1;jettySize=auto;html=1;exitX=0;exitY=0.5;exitDx=0;exitDy=0;entryX=1;entryY=0.25;entryDx=0;entryDy=0;endArrow=none;endFill=0;" parent="1" source="UQRfkEOlzrfQVvjRMX5c-49" target="UQRfkEOlzrfQVvjRMX5c-1" edge="1">
          <mxGeometry relative="1" as="geometry" />
        </mxCell>
        <mxCell id="UQRfkEOlzrfQVvjRMX5c-49" value="TGID" style="ellipse;whiteSpace=wrap;html=1;fillColor=#f8cecc;strokeColor=#b85450;" parent="1" vertex="1">
          <mxGeometry x="1520" y="940" width="150" height="60" as="geometry" />
        </mxCell>
        <mxCell id="UQRfkEOlzrfQVvjRMX5c-50" value="TSID" style="ellipse;whiteSpace=wrap;html=1;fillColor=#f8cecc;strokeColor=#b85450;" parent="1" vertex="1">
          <mxGeometry x="1340" y="870" width="150" height="60" as="geometry" />
        </mxCell>
        <mxCell id="UQRfkEOlzrfQVvjRMX5c-55" style="rounded=0;orthogonalLoop=1;jettySize=auto;html=1;exitX=0.683;exitY=0.061;exitDx=0;exitDy=0;entryX=0.5;entryY=1;entryDx=0;entryDy=0;endArrow=none;endFill=0;exitPerimeter=0;" parent="1" source="UQRfkEOlzrfQVvjRMX5c-52" target="UQRfkEOlzrfQVvjRMX5c-53" edge="1">
          <mxGeometry relative="1" as="geometry" />
        </mxCell>
        <mxCell id="UQRfkEOlzrfQVvjRMX5c-56" style="rounded=0;orthogonalLoop=1;jettySize=auto;html=1;exitX=1;exitY=0;exitDx=0;exitDy=0;entryX=0;entryY=1;entryDx=0;entryDy=0;endArrow=none;endFill=0;" parent="1" source="UQRfkEOlzrfQVvjRMX5c-52" target="UQRfkEOlzrfQVvjRMX5c-54" edge="1">
          <mxGeometry relative="1" as="geometry" />
        </mxCell>
        <mxCell id="UQRfkEOlzrfQVvjRMX5c-62" style="rounded=0;orthogonalLoop=1;jettySize=auto;html=1;exitX=0.5;exitY=1;exitDx=0;exitDy=0;entryX=1;entryY=0;entryDx=0;entryDy=0;endArrow=none;endFill=0;" parent="1" source="UQRfkEOlzrfQVvjRMX5c-52" target="UQRfkEOlzrfQVvjRMX5c-1" edge="1">
          <mxGeometry relative="1" as="geometry" />
        </mxCell>
        <mxCell id="UQRfkEOlzrfQVvjRMX5c-52" value="Destination" style="ellipse;whiteSpace=wrap;html=1;fillColor=#fff2cc;strokeColor=#d6b656;" parent="1" vertex="1">
          <mxGeometry x="1520" y="850" width="150" height="60" as="geometry" />
        </mxCell>
        <mxCell id="UQRfkEOlzrfQVvjRMX5c-53" value="Country" style="ellipse;whiteSpace=wrap;html=1;fillColor=#fff2cc;strokeColor=#d6b656;" parent="1" vertex="1">
          <mxGeometry x="1600" y="740" width="150" height="60" as="geometry" />
        </mxCell>
        <mxCell id="UQRfkEOlzrfQVvjRMX5c-54" value="City" style="ellipse;whiteSpace=wrap;html=1;fillColor=#fff2cc;strokeColor=#d6b656;" parent="1" vertex="1">
          <mxGeometry x="1670" y="800" width="150" height="60" as="geometry" />
        </mxCell>
        <mxCell id="UQRfkEOlzrfQVvjRMX5c-61" style="rounded=0;orthogonalLoop=1;jettySize=auto;html=1;exitX=0;exitY=1;exitDx=0;exitDy=0;entryX=0.75;entryY=0;entryDx=0;entryDy=0;endArrow=none;endFill=0;" parent="1" source="UQRfkEOlzrfQVvjRMX5c-50" target="UQRfkEOlzrfQVvjRMX5c-1" edge="1">
          <mxGeometry relative="1" as="geometry" />
        </mxCell>
        <mxCell id="UQRfkEOlzrfQVvjRMX5c-66" value="EstimatedCost" style="ellipse;whiteSpace=wrap;html=1;fillColor=#fff2cc;strokeColor=#d6b656;" parent="1" vertex="1">
          <mxGeometry x="2190" y="1180" width="150" height="60" as="geometry" />
        </mxCell>
        <mxCell id="UQRfkEOlzrfQVvjRMX5c-67" value="PlanID" style="ellipse;whiteSpace=wrap;html=1;fillColor=#f8cecc;strokeColor=#b85450;" parent="1" vertex="1">
          <mxGeometry x="1980" y="1300" width="150" height="60" as="geometry" />
        </mxCell>
        <mxCell id="UQRfkEOlzrfQVvjRMX5c-68" value="Duration" style="ellipse;whiteSpace=wrap;html=1;fillColor=#fff2cc;strokeColor=#d6b656;" parent="1" vertex="1">
          <mxGeometry x="1790" y="1280" width="150" height="60" as="geometry" />
        </mxCell>
        <mxCell id="UQRfkEOlzrfQVvjRMX5c-69" value="Description" style="ellipse;whiteSpace=wrap;html=1;fillColor=#fff2cc;strokeColor=#d6b656;" parent="1" vertex="1">
          <mxGeometry x="1770" y="1180" width="150" height="60" as="geometry" />
        </mxCell>
        <mxCell id="UQRfkEOlzrfQVvjRMX5c-70" value="Category" style="ellipse;whiteSpace=wrap;html=1;fillColor=#fff2cc;strokeColor=#d6b656;" parent="1" vertex="1">
          <mxGeometry x="2170" y="1280" width="150" height="60" as="geometry" />
        </mxCell>
        <mxCell id="UQRfkEOlzrfQVvjRMX5c-71" value="" style="endArrow=none;html=1;rounded=0;exitX=1;exitY=0.5;exitDx=0;exitDy=0;entryX=0;entryY=0.5;entryDx=0;entryDy=0;" parent="1" source="UQRfkEOlzrfQVvjRMX5c-69" target="CbJjqBj2suY3-Hmp5YB--5" edge="1">
          <mxGeometry width="50" height="50" relative="1" as="geometry">
            <mxPoint x="2010" y="1220" as="sourcePoint" />
            <mxPoint x="2060" y="1170" as="targetPoint" />
          </mxGeometry>
        </mxCell>
        <mxCell id="UQRfkEOlzrfQVvjRMX5c-72" value="" style="endArrow=none;html=1;rounded=0;entryX=0;entryY=1;entryDx=0;entryDy=0;" parent="1" source="UQRfkEOlzrfQVvjRMX5c-68" target="CbJjqBj2suY3-Hmp5YB--5" edge="1">
          <mxGeometry width="50" height="50" relative="1" as="geometry">
            <mxPoint x="2010" y="1220" as="sourcePoint" />
            <mxPoint x="2030" y="1270" as="targetPoint" />
          </mxGeometry>
        </mxCell>
        <mxCell id="UQRfkEOlzrfQVvjRMX5c-74" value="" style="endArrow=none;html=1;rounded=0;entryX=0;entryY=0.5;entryDx=0;entryDy=0;exitX=1;exitY=0.5;exitDx=0;exitDy=0;" parent="1" source="CbJjqBj2suY3-Hmp5YB--5" target="UQRfkEOlzrfQVvjRMX5c-66" edge="1">
          <mxGeometry width="50" height="50" relative="1" as="geometry">
            <mxPoint x="2440" y="1300" as="sourcePoint" />
            <mxPoint x="2190" y="1210" as="targetPoint" />
          </mxGeometry>
        </mxCell>
        <mxCell id="UQRfkEOlzrfQVvjRMX5c-75" value="" style="endArrow=none;html=1;rounded=0;entryX=1;entryY=1;entryDx=0;entryDy=0;exitX=0;exitY=0;exitDx=0;exitDy=0;" parent="1" source="UQRfkEOlzrfQVvjRMX5c-70" target="CbJjqBj2suY3-Hmp5YB--5" edge="1">
          <mxGeometry width="50" height="50" relative="1" as="geometry">
            <mxPoint x="2370" y="1390" as="sourcePoint" />
            <mxPoint x="2420" y="1340" as="targetPoint" />
          </mxGeometry>
        </mxCell>
        <mxCell id="UQRfkEOlzrfQVvjRMX5c-76" value="" style="endArrow=none;html=1;rounded=0;entryX=0.5;entryY=1;entryDx=0;entryDy=0;exitX=0.5;exitY=0;exitDx=0;exitDy=0;" parent="1" source="UQRfkEOlzrfQVvjRMX5c-67" target="CbJjqBj2suY3-Hmp5YB--5" edge="1">
          <mxGeometry width="50" height="50" relative="1" as="geometry">
            <mxPoint x="2230" y="1400" as="sourcePoint" />
            <mxPoint x="2280" y="1350" as="targetPoint" />
          </mxGeometry>
        </mxCell>
        <mxCell id="UQRfkEOlzrfQVvjRMX5c-77" value="PriceRange" style="ellipse;whiteSpace=wrap;html=1;fillColor=#fff2cc;strokeColor=#d6b656;" parent="1" vertex="1">
          <mxGeometry x="890" y="1520" width="150" height="60" as="geometry" />
        </mxCell>
        <mxCell id="UQRfkEOlzrfQVvjRMX5c-78" value="Type" style="ellipse;whiteSpace=wrap;html=1;fillColor=#fff2cc;strokeColor=#d6b656;" parent="1" vertex="1">
          <mxGeometry x="700" y="1550" width="150" height="60" as="geometry" />
        </mxCell>
        <mxCell id="UQRfkEOlzrfQVvjRMX5c-79" value="Location" style="ellipse;whiteSpace=wrap;html=1;fillColor=#fff2cc;strokeColor=#d6b656;" parent="1" vertex="1">
          <mxGeometry x="530" y="1520" width="150" height="60" as="geometry" />
        </mxCell>
        <mxCell id="UQRfkEOlzrfQVvjRMX5c-80" value="Name" style="ellipse;whiteSpace=wrap;html=1;fillColor=#fff2cc;strokeColor=#d6b656;" parent="1" vertex="1">
          <mxGeometry x="480" y="1440" width="150" height="60" as="geometry" />
        </mxCell>
        <mxCell id="UQRfkEOlzrfQVvjRMX5c-81" value="&lt;u&gt;AccommodationID&lt;/u&gt;" style="ellipse;whiteSpace=wrap;html=1;fillColor=#fff2cc;strokeColor=#d6b656;" parent="1" vertex="1">
          <mxGeometry x="920" y="1440" width="150" height="60" as="geometry" />
        </mxCell>
        <mxCell id="UQRfkEOlzrfQVvjRMX5c-82" value="" style="endArrow=none;html=1;rounded=0;entryX=0;entryY=0.5;entryDx=0;entryDy=0;exitX=1;exitY=0.5;exitDx=0;exitDy=0;" parent="1" source="UQRfkEOlzrfQVvjRMX5c-3" target="UQRfkEOlzrfQVvjRMX5c-81" edge="1">
          <mxGeometry width="50" height="50" relative="1" as="geometry">
            <mxPoint x="940" y="1710" as="sourcePoint" />
            <mxPoint x="990" y="1660" as="targetPoint" />
          </mxGeometry>
        </mxCell>
        <mxCell id="UQRfkEOlzrfQVvjRMX5c-83" value="" style="endArrow=none;html=1;rounded=0;entryX=0.5;entryY=0;entryDx=0;entryDy=0;exitX=0.5;exitY=1;exitDx=0;exitDy=0;" parent="1" source="UQRfkEOlzrfQVvjRMX5c-3" target="UQRfkEOlzrfQVvjRMX5c-78" edge="1">
          <mxGeometry width="50" height="50" relative="1" as="geometry">
            <mxPoint x="930" y="1660" as="sourcePoint" />
            <mxPoint x="980" y="1610" as="targetPoint" />
          </mxGeometry>
        </mxCell>
        <mxCell id="UQRfkEOlzrfQVvjRMX5c-84" value="" style="endArrow=none;html=1;rounded=0;entryX=0;entryY=0;entryDx=0;entryDy=0;exitX=1;exitY=1;exitDx=0;exitDy=0;" parent="1" source="UQRfkEOlzrfQVvjRMX5c-3" target="UQRfkEOlzrfQVvjRMX5c-77" edge="1">
          <mxGeometry width="50" height="50" relative="1" as="geometry">
            <mxPoint x="1090" y="1580" as="sourcePoint" />
            <mxPoint x="1140" y="1530" as="targetPoint" />
          </mxGeometry>
        </mxCell>
        <mxCell id="UQRfkEOlzrfQVvjRMX5c-86" value="" style="endArrow=none;html=1;rounded=0;entryX=1;entryY=0;entryDx=0;entryDy=0;exitX=0;exitY=1;exitDx=0;exitDy=0;" parent="1" source="UQRfkEOlzrfQVvjRMX5c-3" target="UQRfkEOlzrfQVvjRMX5c-79" edge="1">
          <mxGeometry width="50" height="50" relative="1" as="geometry">
            <mxPoint x="590" y="1650" as="sourcePoint" />
            <mxPoint x="640" y="1600" as="targetPoint" />
          </mxGeometry>
        </mxCell>
        <mxCell id="UQRfkEOlzrfQVvjRMX5c-88" value="" style="endArrow=none;html=1;rounded=0;exitX=1;exitY=0.5;exitDx=0;exitDy=0;entryX=0;entryY=0.5;entryDx=0;entryDy=0;" parent="1" source="UQRfkEOlzrfQVvjRMX5c-80" target="UQRfkEOlzrfQVvjRMX5c-3" edge="1">
          <mxGeometry width="50" height="50" relative="1" as="geometry">
            <mxPoint x="630" y="1450" as="sourcePoint" />
            <mxPoint x="680" y="1400" as="targetPoint" />
          </mxGeometry>
        </mxCell>
        <mxCell id="UQRfkEOlzrfQVvjRMX5c-90" style="rounded=0;orthogonalLoop=1;jettySize=auto;html=1;exitX=1;exitY=1;exitDx=0;exitDy=0;entryX=0;entryY=0;entryDx=0;entryDy=0;endArrow=none;endFill=0;" parent="1" source="UQRfkEOlzrfQVvjRMX5c-89" target="UQRfkEOlzrfQVvjRMX5c-3" edge="1">
          <mxGeometry relative="1" as="geometry" />
        </mxCell>
        <mxCell id="UQRfkEOlzrfQVvjRMX5c-89" value="PlanID" style="ellipse;whiteSpace=wrap;html=1;fillColor=#f8cecc;strokeColor=#b85450;" parent="1" vertex="1">
          <mxGeometry x="510" y="1360" width="150" height="60" as="geometry" />
        </mxCell>
        <mxCell id="UQRfkEOlzrfQVvjRMX5c-91" value="Duration" style="ellipse;whiteSpace=wrap;html=1;fillColor=#fff2cc;strokeColor=#d6b656;" parent="1" vertex="1">
          <mxGeometry x="1480" y="1610" width="150" height="60" as="geometry" />
        </mxCell>
        <mxCell id="UQRfkEOlzrfQVvjRMX5c-92" value="Origin" style="ellipse;whiteSpace=wrap;html=1;fillColor=#fff2cc;strokeColor=#d6b656;" parent="1" vertex="1">
          <mxGeometry x="1285" y="1800" width="150" height="60" as="geometry" />
        </mxCell>
        <mxCell id="UQRfkEOlzrfQVvjRMX5c-93" value="Destinantion" style="ellipse;whiteSpace=wrap;html=1;fillColor=#fff2cc;strokeColor=#d6b656;" parent="1" vertex="1">
          <mxGeometry x="1450" y="1780" width="150" height="60" as="geometry" />
        </mxCell>
        <mxCell id="UQRfkEOlzrfQVvjRMX5c-94" value="Type" style="ellipse;whiteSpace=wrap;html=1;fillColor=#fff2cc;strokeColor=#d6b656;" parent="1" vertex="1">
          <mxGeometry x="1135" y="1770" width="150" height="60" as="geometry" />
        </mxCell>
        <mxCell id="UQRfkEOlzrfQVvjRMX5c-95" value="TransportationID" style="ellipse;whiteSpace=wrap;html=1;fillColor=#fff2cc;strokeColor=#d6b656;fontStyle=4" parent="1" vertex="1">
          <mxGeometry x="1050" y="1680" width="150" height="60" as="geometry" />
        </mxCell>
        <mxCell id="UQRfkEOlzrfQVvjRMX5c-96" value="EstimatedCost" style="ellipse;whiteSpace=wrap;html=1;fillColor=#fff2cc;strokeColor=#d6b656;" parent="1" vertex="1">
          <mxGeometry x="1510" y="1680" width="150" height="60" as="geometry" />
        </mxCell>
        <mxCell id="UQRfkEOlzrfQVvjRMX5c-97" value="PlanID" style="ellipse;whiteSpace=wrap;html=1;fillColor=#f8cecc;strokeColor=#b85450;" parent="1" vertex="1">
          <mxGeometry x="1070" y="1590" width="150" height="60" as="geometry" />
        </mxCell>
        <mxCell id="UQRfkEOlzrfQVvjRMX5c-99" value="" style="endArrow=none;html=1;rounded=0;entryX=0;entryY=0;entryDx=0;entryDy=0;exitX=1;exitY=1;exitDx=0;exitDy=0;" parent="1" source="UQRfkEOlzrfQVvjRMX5c-97" target="UQRfkEOlzrfQVvjRMX5c-4" edge="1">
          <mxGeometry width="50" height="50" relative="1" as="geometry">
            <mxPoint x="1230" y="1630" as="sourcePoint" />
            <mxPoint x="1280" y="1580" as="targetPoint" />
          </mxGeometry>
        </mxCell>
        <mxCell id="UQRfkEOlzrfQVvjRMX5c-100" value="" style="endArrow=none;html=1;rounded=0;exitX=1;exitY=0.5;exitDx=0;exitDy=0;entryX=0;entryY=0.5;entryDx=0;entryDy=0;" parent="1" source="UQRfkEOlzrfQVvjRMX5c-95" target="UQRfkEOlzrfQVvjRMX5c-4" edge="1">
          <mxGeometry width="50" height="50" relative="1" as="geometry">
            <mxPoint x="1230" y="1630" as="sourcePoint" />
            <mxPoint x="1280" y="1580" as="targetPoint" />
          </mxGeometry>
        </mxCell>
        <mxCell id="UQRfkEOlzrfQVvjRMX5c-101" value="" style="endArrow=none;html=1;rounded=0;entryX=0;entryY=0.5;entryDx=0;entryDy=0;exitX=1;exitY=0.5;exitDx=0;exitDy=0;" parent="1" source="UQRfkEOlzrfQVvjRMX5c-4" target="UQRfkEOlzrfQVvjRMX5c-96" edge="1">
          <mxGeometry width="50" height="50" relative="1" as="geometry">
            <mxPoint x="1440" y="1630" as="sourcePoint" />
            <mxPoint x="1320" y="1580" as="targetPoint" />
          </mxGeometry>
        </mxCell>
        <mxCell id="UQRfkEOlzrfQVvjRMX5c-102" value="" style="endArrow=none;html=1;rounded=0;entryX=0;entryY=0.5;entryDx=0;entryDy=0;exitX=1;exitY=0;exitDx=0;exitDy=0;" parent="1" source="UQRfkEOlzrfQVvjRMX5c-4" target="UQRfkEOlzrfQVvjRMX5c-91" edge="1">
          <mxGeometry width="50" height="50" relative="1" as="geometry">
            <mxPoint x="1220" y="1580" as="sourcePoint" />
            <mxPoint x="1270" y="1530" as="targetPoint" />
          </mxGeometry>
        </mxCell>
        <mxCell id="UQRfkEOlzrfQVvjRMX5c-103" value="" style="endArrow=none;html=1;rounded=0;entryX=1;entryY=0;entryDx=0;entryDy=0;exitX=0.25;exitY=1;exitDx=0;exitDy=0;" parent="1" source="UQRfkEOlzrfQVvjRMX5c-4" target="UQRfkEOlzrfQVvjRMX5c-94" edge="1">
          <mxGeometry width="50" height="50" relative="1" as="geometry">
            <mxPoint x="1160" y="1920" as="sourcePoint" />
            <mxPoint x="1210" y="1870" as="targetPoint" />
          </mxGeometry>
        </mxCell>
        <mxCell id="UQRfkEOlzrfQVvjRMX5c-104" value="" style="endArrow=none;html=1;rounded=0;entryX=0.5;entryY=0;entryDx=0;entryDy=0;exitX=0.5;exitY=1;exitDx=0;exitDy=0;" parent="1" source="UQRfkEOlzrfQVvjRMX5c-4" target="UQRfkEOlzrfQVvjRMX5c-92" edge="1">
          <mxGeometry width="50" height="50" relative="1" as="geometry">
            <mxPoint x="1010" y="1850" as="sourcePoint" />
            <mxPoint x="1060" y="1800" as="targetPoint" />
          </mxGeometry>
        </mxCell>
        <mxCell id="UQRfkEOlzrfQVvjRMX5c-105" value="" style="endArrow=none;html=1;rounded=0;entryX=0;entryY=0;entryDx=0;entryDy=0;exitX=0.75;exitY=1;exitDx=0;exitDy=0;" parent="1" source="UQRfkEOlzrfQVvjRMX5c-4" target="UQRfkEOlzrfQVvjRMX5c-93" edge="1">
          <mxGeometry width="50" height="50" relative="1" as="geometry">
            <mxPoint x="940" y="1740" as="sourcePoint" />
            <mxPoint x="990" y="1690" as="targetPoint" />
          </mxGeometry>
        </mxCell>
        <mxCell id="UQRfkEOlzrfQVvjRMX5c-106" value="Comment" style="ellipse;whiteSpace=wrap;html=1;fillColor=#fff2cc;strokeColor=#d6b656;" parent="1" vertex="1">
          <mxGeometry x="2020" y="880" width="150" height="60" as="geometry" />
        </mxCell>
        <mxCell id="UQRfkEOlzrfQVvjRMX5c-107" value="Rating" style="ellipse;whiteSpace=wrap;html=1;fillColor=#fff2cc;strokeColor=#d6b656;" parent="1" vertex="1">
          <mxGeometry x="2110" y="820" width="150" height="60" as="geometry" />
        </mxCell>
        <mxCell id="UQRfkEOlzrfQVvjRMX5c-108" value="ReviewID" style="ellipse;whiteSpace=wrap;html=1;fillColor=#fff2cc;strokeColor=#d6b656;fontStyle=4" parent="1" vertex="1">
          <mxGeometry x="2130" y="730" width="150" height="60" as="geometry" />
        </mxCell>
        <mxCell id="UQRfkEOlzrfQVvjRMX5c-109" value="PlanID" style="ellipse;whiteSpace=wrap;html=1;fillColor=#f8cecc;strokeColor=#b85450;" parent="1" vertex="1">
          <mxGeometry x="2090" y="660" width="150" height="60" as="geometry" />
        </mxCell>
        <mxCell id="UQRfkEOlzrfQVvjRMX5c-110" value="" style="endArrow=none;html=1;rounded=0;entryX=0.5;entryY=0;entryDx=0;entryDy=0;exitX=0.75;exitY=1;exitDx=0;exitDy=0;" parent="1" source="UQRfkEOlzrfQVvjRMX5c-12" target="UQRfkEOlzrfQVvjRMX5c-106" edge="1">
          <mxGeometry width="50" height="50" relative="1" as="geometry">
            <mxPoint x="2090" y="1050" as="sourcePoint" />
            <mxPoint x="2140" y="1000" as="targetPoint" />
          </mxGeometry>
        </mxCell>
        <mxCell id="UQRfkEOlzrfQVvjRMX5c-111" value="" style="endArrow=none;html=1;rounded=0;entryX=0;entryY=0.5;entryDx=0;entryDy=0;exitX=1;exitY=0.25;exitDx=0;exitDy=0;" parent="1" source="UQRfkEOlzrfQVvjRMX5c-12" target="UQRfkEOlzrfQVvjRMX5c-108" edge="1">
          <mxGeometry width="50" height="50" relative="1" as="geometry">
            <mxPoint x="2080" y="820" as="sourcePoint" />
            <mxPoint x="2130" y="770" as="targetPoint" />
          </mxGeometry>
        </mxCell>
        <mxCell id="UQRfkEOlzrfQVvjRMX5c-112" value="" style="endArrow=none;html=1;rounded=0;entryX=0;entryY=0;entryDx=0;entryDy=0;exitX=1;exitY=0.75;exitDx=0;exitDy=0;" parent="1" source="UQRfkEOlzrfQVvjRMX5c-12" target="UQRfkEOlzrfQVvjRMX5c-107" edge="1">
          <mxGeometry width="50" height="50" relative="1" as="geometry">
            <mxPoint x="2060" y="840" as="sourcePoint" />
            <mxPoint x="2110" y="790" as="targetPoint" />
          </mxGeometry>
        </mxCell>
        <mxCell id="UQRfkEOlzrfQVvjRMX5c-113" value="" style="endArrow=none;html=1;rounded=0;entryX=0;entryY=1;entryDx=0;entryDy=0;exitX=0.75;exitY=0;exitDx=0;exitDy=0;" parent="1" source="UQRfkEOlzrfQVvjRMX5c-12" target="UQRfkEOlzrfQVvjRMX5c-109" edge="1">
          <mxGeometry width="50" height="50" relative="1" as="geometry">
            <mxPoint x="1790" y="720" as="sourcePoint" />
            <mxPoint x="1810" y="550" as="targetPoint" />
          </mxGeometry>
        </mxCell>
        <mxCell id="UQRfkEOlzrfQVvjRMX5c-141" style="edgeStyle=orthogonalEdgeStyle;rounded=1;orthogonalLoop=1;jettySize=auto;html=1;exitX=1;exitY=0.5;exitDx=0;exitDy=0;entryX=0.5;entryY=0;entryDx=0;entryDy=0;endArrow=ERmandOne;endFill=0;curved=0;" parent="1" source="UQRfkEOlzrfQVvjRMX5c-140" target="UQRfkEOlzrfQVvjRMX5c-114" edge="1">
          <mxGeometry relative="1" as="geometry" />
        </mxCell>
        <mxCell id="UQRfkEOlzrfQVvjRMX5c-114" value="&lt;font style=&quot;font-size: 18px;&quot;&gt;TravelGroup&lt;/font&gt;" style="rounded=0;whiteSpace=wrap;html=1;fillColor=#dae8fc;strokeColor=#6c8ebf;" parent="1" vertex="1">
          <mxGeometry x="1530" y="1340" width="150" height="60" as="geometry" />
        </mxCell>
        <mxCell id="UQRfkEOlzrfQVvjRMX5c-122" value="&lt;font style=&quot;font-size: 18px;&quot;&gt;TravelStyle&lt;/font&gt;" style="rounded=0;whiteSpace=wrap;html=1;fillColor=#dae8fc;strokeColor=#6c8ebf;" parent="1" vertex="1">
          <mxGeometry x="365" y="985" width="150" height="60" as="geometry" />
        </mxCell>
        <mxCell id="UQRfkEOlzrfQVvjRMX5c-125" value="&lt;u&gt;TGID&lt;/u&gt;" style="ellipse;whiteSpace=wrap;html=1;fillColor=#fff2cc;strokeColor=#d6b656;" parent="1" vertex="1">
          <mxGeometry x="1350" y="1400" width="150" height="60" as="geometry" />
        </mxCell>
        <mxCell id="UQRfkEOlzrfQVvjRMX5c-127" value="Theme" style="ellipse;whiteSpace=wrap;html=1;fillColor=#fff2cc;strokeColor=#d6b656;" parent="1" vertex="1">
          <mxGeometry x="240" y="870" width="150" height="60" as="geometry" />
        </mxCell>
        <mxCell id="UQRfkEOlzrfQVvjRMX5c-129" value="&lt;u&gt;TSID&lt;/u&gt;" style="ellipse;whiteSpace=wrap;html=1;fillColor=#fff2cc;strokeColor=#d6b656;" parent="1" vertex="1">
          <mxGeometry x="480" y="870" width="150" height="60" as="geometry" />
        </mxCell>
        <mxCell id="UQRfkEOlzrfQVvjRMX5c-130" value="TGCategory" style="ellipse;whiteSpace=wrap;html=1;fillColor=#fff2cc;strokeColor=#d6b656;" parent="1" vertex="1">
          <mxGeometry x="1700" y="1390" width="150" height="60" as="geometry" />
        </mxCell>
        <mxCell id="UQRfkEOlzrfQVvjRMX5c-131" value="" style="endArrow=none;html=1;rounded=0;exitX=0.5;exitY=1;exitDx=0;exitDy=0;entryX=1;entryY=0.5;entryDx=0;entryDy=0;" parent="1" source="UQRfkEOlzrfQVvjRMX5c-129" target="UQRfkEOlzrfQVvjRMX5c-122" edge="1">
          <mxGeometry width="50" height="50" relative="1" as="geometry">
            <mxPoint x="580" y="1040" as="sourcePoint" />
            <mxPoint x="630" y="990" as="targetPoint" />
          </mxGeometry>
        </mxCell>
        <mxCell id="UQRfkEOlzrfQVvjRMX5c-132" value="" style="endArrow=none;html=1;rounded=0;exitX=0.5;exitY=1;exitDx=0;exitDy=0;entryX=0;entryY=0.5;entryDx=0;entryDy=0;" parent="1" source="UQRfkEOlzrfQVvjRMX5c-127" target="UQRfkEOlzrfQVvjRMX5c-122" edge="1">
          <mxGeometry width="50" height="50" relative="1" as="geometry">
            <mxPoint x="400" y="1110" as="sourcePoint" />
            <mxPoint x="450" y="1060" as="targetPoint" />
          </mxGeometry>
        </mxCell>
        <mxCell id="UQRfkEOlzrfQVvjRMX5c-135" value="" style="endArrow=none;html=1;rounded=0;entryX=1;entryY=0.5;entryDx=0;entryDy=0;exitX=0;exitY=0;exitDx=0;exitDy=0;" parent="1" source="UQRfkEOlzrfQVvjRMX5c-130" target="UQRfkEOlzrfQVvjRMX5c-114" edge="1">
          <mxGeometry width="50" height="50" relative="1" as="geometry">
            <mxPoint x="1760" y="1380" as="sourcePoint" />
            <mxPoint x="1810" y="1330" as="targetPoint" />
          </mxGeometry>
        </mxCell>
        <mxCell id="UQRfkEOlzrfQVvjRMX5c-136" value="" style="endArrow=none;html=1;rounded=0;entryX=0;entryY=0.5;entryDx=0;entryDy=0;exitX=1;exitY=0;exitDx=0;exitDy=0;" parent="1" source="UQRfkEOlzrfQVvjRMX5c-125" target="UQRfkEOlzrfQVvjRMX5c-114" edge="1">
          <mxGeometry width="50" height="50" relative="1" as="geometry">
            <mxPoint x="1410" y="1380" as="sourcePoint" />
            <mxPoint x="1460" y="1330" as="targetPoint" />
          </mxGeometry>
        </mxCell>
        <mxCell id="UQRfkEOlzrfQVvjRMX5c-144" style="edgeStyle=orthogonalEdgeStyle;rounded=1;orthogonalLoop=1;jettySize=auto;html=1;exitX=1;exitY=0.5;exitDx=0;exitDy=0;endArrow=ERoneToMany;endFill=0;curved=0;entryX=0.199;entryY=0.998;entryDx=0;entryDy=0;entryPerimeter=0;" parent="1" source="UQRfkEOlzrfQVvjRMX5c-139" target="UQRfkEOlzrfQVvjRMX5c-1" edge="1">
          <mxGeometry relative="1" as="geometry">
            <Array as="points">
              <mxPoint x="1160" y="1150" />
              <mxPoint x="1160" y="1100" />
            </Array>
            <mxPoint x="1166" y="1100" as="targetPoint" />
          </mxGeometry>
        </mxCell>
        <mxCell id="CbJjqBj2suY3-Hmp5YB--2" style="edgeStyle=orthogonalEdgeStyle;rounded=1;orthogonalLoop=1;jettySize=auto;html=1;exitX=0;exitY=0.5;exitDx=0;exitDy=0;entryX=0.5;entryY=1;entryDx=0;entryDy=0;endArrow=ERmandOne;endFill=0;curved=0;" parent="1" source="UQRfkEOlzrfQVvjRMX5c-139" target="UQRfkEOlzrfQVvjRMX5c-122" edge="1">
          <mxGeometry relative="1" as="geometry" />
        </mxCell>
        <mxCell id="UQRfkEOlzrfQVvjRMX5c-139" value="&lt;font style=&quot;font-size: 18px;&quot;&gt;Has&lt;/font&gt;" style="rhombus;whiteSpace=wrap;html=1;fillColor=#e1d5e7;strokeColor=#9673a6;" parent="1" vertex="1">
          <mxGeometry x="590" y="1110" width="150" height="80" as="geometry" />
        </mxCell>
        <mxCell id="UQRfkEOlzrfQVvjRMX5c-142" style="edgeStyle=orthogonalEdgeStyle;rounded=1;orthogonalLoop=1;jettySize=auto;html=1;exitX=0;exitY=0.5;exitDx=0;exitDy=0;entryX=0.75;entryY=1;entryDx=0;entryDy=0;endArrow=ERoneToMany;endFill=0;curved=0;" parent="1" source="UQRfkEOlzrfQVvjRMX5c-140" target="UQRfkEOlzrfQVvjRMX5c-1" edge="1">
          <mxGeometry relative="1" as="geometry" />
        </mxCell>
        <mxCell id="UQRfkEOlzrfQVvjRMX5c-140" value="&lt;font style=&quot;font-size: 18px;&quot;&gt;Has&lt;/font&gt;" style="rhombus;whiteSpace=wrap;html=1;fillColor=#e1d5e7;strokeColor=#9673a6;" parent="1" vertex="1">
          <mxGeometry x="1310" y="1150" width="150" height="80" as="geometry" />
        </mxCell>
        <mxCell id="CbJjqBj2suY3-Hmp5YB--6" value="" style="group" parent="1" vertex="1" connectable="0">
          <mxGeometry x="1970" y="1170" width="170" height="80" as="geometry" />
        </mxCell>
        <mxCell id="CbJjqBj2suY3-Hmp5YB--5" value="" style="rounded=0;whiteSpace=wrap;html=1;fillColor=#dae8fc;strokeColor=#6c8ebf;strokeWidth=1;perimeterSpacing=0;" parent="CbJjqBj2suY3-Hmp5YB--6" vertex="1">
          <mxGeometry width="170" height="80" as="geometry" />
        </mxCell>
        <mxCell id="UQRfkEOlzrfQVvjRMX5c-2" value="&lt;font style=&quot;font-size: 18px;&quot;&gt;Activities&lt;/font&gt;" style="rounded=0;whiteSpace=wrap;html=1;fillColor=#dae8fc;strokeColor=#6c8ebf;fillStyle=auto;gradientColor=none;glass=0;shadow=0;" parent="CbJjqBj2suY3-Hmp5YB--6" vertex="1">
          <mxGeometry x="10" y="10" width="150" height="60" as="geometry" />
        </mxCell>
        <mxCell id="CbJjqBj2suY3-Hmp5YB--8" style="rounded=0;orthogonalLoop=1;jettySize=auto;html=1;exitX=1;exitY=1;exitDx=0;exitDy=0;entryX=0;entryY=0;entryDx=0;entryDy=0;endArrow=none;endFill=0;" parent="1" source="CbJjqBj2suY3-Hmp5YB--7" target="UQRfkEOlzrfQVvjRMX5c-1" edge="1">
          <mxGeometry relative="1" as="geometry" />
        </mxCell>
        <mxCell id="CbJjqBj2suY3-Hmp5YB--7" value="Duration" style="ellipse;whiteSpace=wrap;html=1;fillColor=#fff2cc;strokeColor=#000000;dashed=1;" parent="1" vertex="1">
          <mxGeometry x="790" y="870" width="150" height="60" as="geometry" />
        </mxCell>
        <mxCell id="EjLKQ6Hcr3rjrkump423-4" style="edgeStyle=orthogonalEdgeStyle;rounded=1;orthogonalLoop=1;jettySize=auto;html=1;exitX=1;exitY=0.5;exitDx=0;exitDy=0;entryX=0.25;entryY=1;entryDx=0;entryDy=0;endArrow=ERmandOne;endFill=0;curved=0;" edge="1" parent="1" source="EjLKQ6Hcr3rjrkump423-2" target="UQRfkEOlzrfQVvjRMX5c-12">
          <mxGeometry relative="1" as="geometry">
            <Array as="points">
              <mxPoint x="1948" y="1040" />
            </Array>
          </mxGeometry>
        </mxCell>
        <mxCell id="EjLKQ6Hcr3rjrkump423-2" value="&lt;font style=&quot;font-size: 18px;&quot;&gt;Has&lt;/font&gt;" style="rhombus;whiteSpace=wrap;html=1;fillColor=#e1d5e7;strokeColor=#9673a6;" vertex="1" parent="1">
          <mxGeometry x="1740" y="1000" width="150" height="80" as="geometry" />
        </mxCell>
        <mxCell id="EjLKQ6Hcr3rjrkump423-5" value="UserID" style="ellipse;whiteSpace=wrap;html=1;fillColor=#f8cecc;strokeColor=#b85450;" vertex="1" parent="1">
          <mxGeometry x="1950" y="620" width="150" height="60" as="geometry" />
        </mxCell>
        <mxCell id="EjLKQ6Hcr3rjrkump423-12" style="rounded=0;orthogonalLoop=1;jettySize=auto;html=1;exitX=1;exitY=1;exitDx=0;exitDy=0;entryX=0;entryY=0;entryDx=0;entryDy=0;endArrow=none;endFill=0;" edge="1" parent="1" source="EjLKQ6Hcr3rjrkump423-7" target="UQRfkEOlzrfQVvjRMX5c-42">
          <mxGeometry relative="1" as="geometry" />
        </mxCell>
        <mxCell id="EjLKQ6Hcr3rjrkump423-7" value="Month" style="ellipse;whiteSpace=wrap;html=1;fillColor=#fff2cc;strokeColor=#d6b656;" vertex="1" parent="1">
          <mxGeometry x="570" y="680" width="150" height="60" as="geometry" />
        </mxCell>
        <mxCell id="EjLKQ6Hcr3rjrkump423-11" style="rounded=0;orthogonalLoop=1;jettySize=auto;html=1;exitX=1;exitY=0.5;exitDx=0;exitDy=0;entryX=0;entryY=0.5;entryDx=0;entryDy=0;endArrow=none;endFill=0;" edge="1" parent="1" source="EjLKQ6Hcr3rjrkump423-8" target="UQRfkEOlzrfQVvjRMX5c-42">
          <mxGeometry relative="1" as="geometry" />
        </mxCell>
        <mxCell id="EjLKQ6Hcr3rjrkump423-8" value="Day" style="ellipse;whiteSpace=wrap;html=1;fillColor=#fff2cc;strokeColor=#d6b656;" vertex="1" parent="1">
          <mxGeometry x="510" y="750" width="150" height="60" as="geometry" />
        </mxCell>
        <mxCell id="EjLKQ6Hcr3rjrkump423-13" style="rounded=0;orthogonalLoop=1;jettySize=auto;html=1;exitX=0.5;exitY=1;exitDx=0;exitDy=0;entryX=0.5;entryY=0;entryDx=0;entryDy=0;endArrow=none;endFill=0;" edge="1" parent="1" source="EjLKQ6Hcr3rjrkump423-9" target="UQRfkEOlzrfQVvjRMX5c-42">
          <mxGeometry relative="1" as="geometry" />
        </mxCell>
        <mxCell id="EjLKQ6Hcr3rjrkump423-9" value="Year" style="ellipse;whiteSpace=wrap;html=1;fillColor=#fff2cc;strokeColor=#d6b656;" vertex="1" parent="1">
          <mxGeometry x="720" y="670" width="150" height="60" as="geometry" />
        </mxCell>
        <mxCell id="EjLKQ6Hcr3rjrkump423-18" style="rounded=0;orthogonalLoop=1;jettySize=auto;html=1;exitX=0.27;exitY=0.951;exitDx=0;exitDy=0;entryX=0.639;entryY=0.015;entryDx=0;entryDy=0;endArrow=none;endFill=0;entryPerimeter=0;exitPerimeter=0;" edge="1" parent="1" source="EjLKQ6Hcr3rjrkump423-14" target="UQRfkEOlzrfQVvjRMX5c-41">
          <mxGeometry relative="1" as="geometry" />
        </mxCell>
        <mxCell id="EjLKQ6Hcr3rjrkump423-14" value="Month" style="ellipse;whiteSpace=wrap;html=1;fillColor=#fff2cc;strokeColor=#d6b656;" vertex="1" parent="1">
          <mxGeometry x="1020" y="620" width="150" height="60" as="geometry" />
        </mxCell>
        <mxCell id="EjLKQ6Hcr3rjrkump423-17" style="rounded=0;orthogonalLoop=1;jettySize=auto;html=1;exitX=0.5;exitY=1;exitDx=0;exitDy=0;endArrow=none;endFill=0;" edge="1" parent="1" source="EjLKQ6Hcr3rjrkump423-15" target="UQRfkEOlzrfQVvjRMX5c-41">
          <mxGeometry relative="1" as="geometry" />
        </mxCell>
        <mxCell id="EjLKQ6Hcr3rjrkump423-15" value="Day" style="ellipse;whiteSpace=wrap;html=1;fillColor=#fff2cc;strokeColor=#d6b656;" vertex="1" parent="1">
          <mxGeometry x="870" y="630" width="150" height="60" as="geometry" />
        </mxCell>
        <mxCell id="EjLKQ6Hcr3rjrkump423-19" style="rounded=0;orthogonalLoop=1;jettySize=auto;html=1;exitX=0;exitY=0.5;exitDx=0;exitDy=0;endArrow=none;endFill=0;entryX=1;entryY=0.5;entryDx=0;entryDy=0;" edge="1" parent="1" source="EjLKQ6Hcr3rjrkump423-16" target="UQRfkEOlzrfQVvjRMX5c-41">
          <mxGeometry relative="1" as="geometry" />
        </mxCell>
        <mxCell id="EjLKQ6Hcr3rjrkump423-16" value="Year" style="ellipse;whiteSpace=wrap;html=1;fillColor=#fff2cc;strokeColor=#d6b656;" vertex="1" parent="1">
          <mxGeometry x="1090" y="710" width="150" height="60" as="geometry" />
        </mxCell>
        <mxCell id="EjLKQ6Hcr3rjrkump423-20" value="DateRange" style="ellipse;whiteSpace=wrap;html=1;fillColor=#fff2cc;strokeColor=#d6b656;" vertex="1" parent="1">
          <mxGeometry x="940" y="810" width="150" height="60" as="geometry" />
        </mxCell>
        <mxCell id="EjLKQ6Hcr3rjrkump423-21" style="rounded=0;orthogonalLoop=1;jettySize=auto;html=1;exitX=0.5;exitY=1;exitDx=0;exitDy=0;entryX=0.25;entryY=0;entryDx=0;entryDy=0;endArrow=none;endFill=0;" edge="1" parent="1" source="EjLKQ6Hcr3rjrkump423-20" target="UQRfkEOlzrfQVvjRMX5c-1">
          <mxGeometry relative="1" as="geometry" />
        </mxCell>
        <mxCell id="EjLKQ6Hcr3rjrkump423-23" style="rounded=0;orthogonalLoop=1;jettySize=auto;html=1;exitX=0.5;exitY=1;exitDx=0;exitDy=0;entryX=0.294;entryY=0.03;entryDx=0;entryDy=0;entryPerimeter=0;endArrow=none;endFill=0;" edge="1" parent="1" source="UQRfkEOlzrfQVvjRMX5c-41" target="EjLKQ6Hcr3rjrkump423-20">
          <mxGeometry relative="1" as="geometry" />
        </mxCell>
        <mxCell id="EjLKQ6Hcr3rjrkump423-25" value="" style="group" vertex="1" connectable="0" parent="1">
          <mxGeometry x="1580" y="1085" width="170" height="90" as="geometry" />
        </mxCell>
        <mxCell id="EjLKQ6Hcr3rjrkump423-24" value="" style="rhombus;whiteSpace=wrap;html=1;fillColor=#e1d5e7;strokeColor=#9673a6;" vertex="1" parent="EjLKQ6Hcr3rjrkump423-25">
          <mxGeometry width="170" height="90" as="geometry" />
        </mxCell>
        <mxCell id="UQRfkEOlzrfQVvjRMX5c-22" value="&lt;font style=&quot;font-size: 18px;&quot;&gt;Entails&lt;/font&gt;" style="rhombus;whiteSpace=wrap;html=1;fillColor=#e1d5e7;strokeColor=#9673a6;" parent="EjLKQ6Hcr3rjrkump423-25" vertex="1">
          <mxGeometry x="10" y="5" width="150" height="80" as="geometry" />
        </mxCell>
      </root>
    </mxGraphModel>
  </diagram>
</mxfile>
